<?xml version="1.0" encoding="utf-8"?>
<!-- Generator: Adobe Illustrator 24.0.1, SVG Export Plug-In . SVG Version: 6.00 Build 0)  -->
<svg version="1.1" id="Layer_1" xmlns="http://www.w3.org/2000/svg" xmlns:xlink="http://www.w3.org/1999/xlink" x="0px" y="0px"
	 viewBox="0 0 223.3 399.5" style="enable-background:new 0 0 223.3 399.5;" xml:space="preserve">
<style type="text/css">
	.st0{clip-path:url(#SVGID_2_);fill:#228FBF;}
</style>
<title>dtsvg</title>
<g>
	<defs>
		<rect id="SVGID_1_" width="223.3" height="399.5"/>
	</defs>
	<clipPath id="SVGID_2_">
		<use xlink:href="#SVGID_1_"  style="overflow:visible;"/>
	</clipPath>
	<path class="st0" d="M141.9,229.9v80.5c0,22.4,7.9,41.6,23.5,57.2c14.8,14.8,32.8,22.7,53.6,23.4V361c-12.4-0.7-23.2-5.7-32.3-14.7
		c-9.8-9.8-14.8-21.9-14.8-35.8v-55H219V229h-47.1v-73.7l-0.2-3.2V8.3h-30.7v157.8c0,14.2-5.1,26.4-15.1,36.4s-22.2,15-36.4,15
		c-14.2,0-26.4-5.1-36.3-15.1c-9.8-10-14.8-22.2-14.8-36.4c0-13.9,5-26.1,14.8-36c9.9-10,22.1-15.1,36.3-15.1
		c11.9,0,22.4,3.5,31.3,10.5V90.7c-9.9-4.2-20.4-6.3-31.3-6.3c-22.5,0-42,8.1-57.8,23.9c-15.9,15.9-23.9,35.3-23.9,57.8
		c0,22.8,8,42.4,23.9,58.2c15.9,15.9,35.3,23.9,57.8,23.9c17.6,0,33.5-5,47.2-14.7L141.9,229.9z"/>
</g>
</svg>
